PathFileType	4	(X/Y/Z)	40_2_86_p0_0-597.trc
DataRate	CameraRate	NumFrames	NumMarkers	Units	OrigDataRate	OrigDataStartFrame	OrigNumFrames
40.0	40.0	5	27	m	40.0	149	598
Frame#	Time	RHip			RKnee			RAnkle			RBigToe			RSmallToe			RHeel			LHip			LKnee			LAnkle			LBigToe			LSmallToe			LHeel			Neck			Head			Nose			RShoulder			RElbow			RWrist			RThumb			RIndex			RPinky			LShoulder			LElbow			LWrist			LThumb			LIndex			LPinky			
		X1	Y1	Z1	X2	Y2	Z2	X3	Y3	Z3	X4	Y4	Z4	X5	Y5	Z5	X6	Y6	Z6	X7	Y7	Z7	X8	Y8	Z8	X9	Y9	Z9	X10	Y10	Z10	X11	Y11	Z11	X12	Y12	Z12	X13	Y13	Z13	X14	Y14	Z14	X15	Y15	Z15	X16	Y16	Z16	X17	Y17	Z17	X18	Y18	Z18	X19	Y19	Z19	X20	Y20	Z20	X21	Y21	Z21	X22	Y22	Z22	X23	Y23	Z23	X24	Y24	Z24	X25	Y25	Z25	X26	Y26	Z26	X27	Y27	Z27	
149	3.725	0.36159335206710114	0.5695241541641162	0.867588358290343	0.3204628275493226	0.6825127060281669	1.3002889611482873	0.3003290767261281	0.8057582528724573	1.6989276491591365	0.3010545167589752	0.6214052019022998	1.6871741581219275	0.35288818362391455	0.6669679325724972	1.7070640226178917	0.2769369748585108	0.9489229781076015	1.7812498254804827	0.14669423207051555	0.5650171359373534	0.8734817718790285	0.11297537226247395	0.7386178548221825	1.3187973168649276	0.10870548157084468	0.8469812546442418	1.70999712409159	0.16019403455459566	0.6102655465411041	1.678084315313675	0.11539946844746377	0.6491828039801374	1.6905155829819243	0.11669671364592922	0.917242238924109	1.751882252393363	0.2665297918584735	0.4714943527224909	0.3616049289589122	0.28307587572010356	0.36152090524159075	0.12092296341067764	0.2869740895200942	0.2856525588386559	0.2686197532808346	0.4212815909996852	0.46979815859449087	0.4407636986460786	0.4374337498420165	0.4588709330219412	0.6621538740126774	0.34280920302950274	0.24603273865943168	0.6326321496846582	0.26024152876142337	0.2018966279517143	0.5970442507266824	0.2816901951700877	0.09267403313019738	0.6041863091633505	0.2892987661678	0.1644732851185739	0.6500878504583147	0.10599649365384248	0.44729749133415425	0.4163368267990348	0.05358503164418687	0.45622610077987696	0.6466640458139439	0.11827427590817921	0.27890824312984724	0.6482369857139137	0.1715063345723219	0.19209297564337557	0.618551600812087	0.1655127831923875	0.18481675887891896	0.6245361690075633	0.16402353301279413	0.225006213946432	0.678889173876232
150	3.75	0.36063583636870644	0.5707047197313083	0.8678536740738834	0.31025031758791777	0.6955934120808346	1.3045142429540242	0.3026120471625932	0.8205150626709322	1.704074321328009	0.30066416134915636	0.6194197809482294	1.686615049447206	0.35281331955411466	0.6660567813475856	1.7068724569489844	0.28324476500927076	0.9310235833256539	1.7733209389379052	0.14099956689460466	0.5929999955692402	0.8732717291628251	0.11060913339870786	0.7253547637130192	1.3198209067473863	0.10871042586126035	0.8467665036339583	1.7100865154760705	0.16016114736997455	0.610192369135894	1.6780418501687138	0.11492597929455077	0.6490669288901626	1.69847073447362	0.11486087159688634	0.9029734320979058	1.7470597481578907	0.27009870901659194	0.472509024018158	0.3613837128213248	0.28802411735280453	0.35053395358034617	0.12224211458391199	0.28156969346327704	0.29654231935353936	0.26750849646751185	0.4309687061856223	0.44427155156280146	0.44136948605551973	0.4375258900478296	0.4583734821611226	0.6642693657089309	0.3371423751476176	0.21724547086257126	0.6321611183153726	0.2436742048370583	0.1507775374160978	0.6035240168775073	0.25291321489536905	0.11725486912736423	0.6091915639690264	0.309482550354297	0.034883357258164285	0.6509058846742545	0.100907672762761	0.47243812045768135	0.4150654882921736	0.057420005744216775	0.4878370189397732	0.6370676622223455	0.10451655627442873	0.2842912052346546	0.6389594348914439	0.15397713198773816	0.18545752284711317	0.6188107665115044	0.1332266917271801	0.12720635201241778	0.6227798433175002	0.13814875753473146	0.18473664243175833	0.6817213492027618
151	3.775	0.3587047403885447	0.557634019541458	0.8707304134043081	0.31105014569437395	0.6946321286564282	1.300300933741978	0.30377588598095134	0.8192829283489268	1.6992101777301156	0.29994168431879215	0.6183001687586788	1.6865473757217422	0.3526000545605159	0.6657237480656791	1.7069135454705637	0.2858732628904667	0.9514277031263428	1.7844669736739085	0.14128807597614196	0.5930298816185675	0.8733336004238922	0.1132763097249094	0.7417638511535272	1.3240975773983277	0.10872727573720647	0.8468539082279221	1.71002304949183	0.15402427450618614	0.6242937610515904	1.6838808716912124	0.10933782913641532	0.6625274955312502	1.7004848155787013	0.11501508246211978	0.903009540724336	1.746788135313852	0.26789300759741225	0.460667099523414	0.36230448402029686	0.28796988309805166	0.3505338086158197	0.12491613481901535	0.27242516472787426	0.30377424990206425	0.2637816434338071	0.4307147164763683	0.44444217665113966	0.44507215241653	0.4369966932319045	0.4225106358614037	0.663515638247405	0.33344217469913234	0.1981505610161031	0.634740904809766	0.23097809285560453	0.14866519537989	0.6042714890526751	0.23173929361437426	0.12505203831803738	0.6094742468847155	0.24906948951293525	0.137617794404087	0.6521302530744276	0.10055163435277716	0.47284246690020004	0.41123840290176816	0.059435906452387346	0.5221451886890589	0.6380265217546115	0.09504893892716804	0.2905335385743257	0.6361759744027108	0.14174219614575242	0.1884719359267905	0.6164812025047823	0.12828996471288856	0.1425891746430583	0.6235726065209012	0.12820149892379903	0.18125462609203652	0.680465500601129
152	3.8	0.3552357614984526	0.5848143676345777	0.8778154201944675	0.3079954930807435	0.6818142728793878	1.3013284362842916	0.30884724058484764	0.8038511495373865	1.6979587936352925	0.30025318783254834	0.6200594622656191	1.6870979665487522	0.3527232842935923	0.6662585203508776	1.7070371726973566	0.29115676792107476	0.9303738096449191	1.7675749226507858	0.14106914266001	0.5933920413395077	0.873538234860065	0.11157902621232962	0.7246224256573115	1.3154494274058035	0.10877095555867523	0.8469777085482728	1.709874899554509	0.15297879513004667	0.6103719564332686	1.6790507942905557	0.1019024114358241	0.6785314530009818	1.702645753954265	0.11690543349820731	0.9164445990839101	1.7511250828410336	0.26791600385349695	0.4606617874698629	0.36236231092181315	0.28271328404060053	0.3610384003070371	0.11719187706297692	0.27223635285148756	0.3050808303473883	0.2671275721457956	0.42652531241345154	0.4426451552713482	0.4419672159162545	0.42875657554828744	0.43268493810608405	0.6597898673884092	0.322767959464347	0.19406492765741867	0.6319079550324849	0.2136711725777593	0.14106122528992418	0.5917337852870642	0.21526348048981078	0.12004982969494597	0.6043139465728513	0.23366079528793138	0.13475036900662832	0.6469657533094503	0.09469398447944886	0.4854079785040707	0.4110315788742307	0.05191613758722819	0.5151591068904078	0.6379416325553806	0.09084341287588452	0.29122071059619553	0.6360888105709339	0.1279747186492442	0.18289342617891968	0.6102190195671588	0.12317860939503825	0.13343356188544497	0.6192905181623531	0.11143259346795097	0.18945215312551092	0.6718997621436138
153	3.825	0.35613045890690537	0.5861248191856585	0.8776508298644701	0.3100296634803347	0.6956220533263121	1.304474721790255	0.3089165200403898	0.8039098425773276	1.6980692711050753	0.29407573821328503	0.6333935081209033	1.692710497429749	0.3525753195450347	0.6655903867188301	1.706866826760172	0.2926658121794867	0.9331559413467372	1.7774883032246704	0.1414220005613227	0.5930160204523253	0.8699996258833831	0.11288534009456776	0.7266790395420624	1.3163618465631863	0.1099738188489671	0.8459143566305984	1.7049534097896983	0.14690038243766315	0.6103900610485421	1.6830208958471786	0.0950441399852551	0.6934597678964739	1.7088565275268404	0.12252183780211455	0.9224538936383525	1.747352011087456	0.26441792917383666	0.4593801806803188	0.3624974345866649	0.28080613719051395	0.34956510387104706	0.11911126226516858	0.26324719244857503	0.3143776147934154	0.2663575020503195	0.4235927735338515	0.4298448000630143	0.438978722388698	0.4215252383768434	0.4175744001322909	0.6562058635216047	0.311545428710729	0.19028077419491135	0.6291833033518781	0.20915684956390163	0.14024985783054847	0.5848933992943455	0.21222431579714157	0.10913373936234311	0.5977095715311165	0.2228933809106534	0.13091158313067836	0.6426687769996657	0.09577223214654862	0.4987368329145776	0.41019888241367564	0.05865807621751129	0.5220573916451813	0.6293270161234138	0.0877673380775694	0.2977162610579937	0.6334133540970281	0.12497575660408261	0.17308899711074827	0.6108268062457431	0.1117317935427881	0.15175547572148199	0.6175787129595377	0.09478248091137166	0.231567614556891	0.6761363524610988
